ffprobe version n2.6.1 Copyright (c) 2007-2015 the FFmpeg developers
  built with gcc 4.8 (Ubuntu 4.8.2-19ubuntu1)
  configuration: --prefix=/opt/ffmpeg --extra-cflags=-I/opt/ffmpeg/include --extra-ldflags=-L/opt/ffmpeg/lib --extra-libs=-ldl --enable-gpl --enable-libass --enable-libfdk-aac --enable-libfreetype --enable-libmp3lame --enable-libtheora --enable-libvorbis --enable-libvpx --enable-libx264 --enable-libx265 --enable-nonfree
  libavutil      54. 20.100 / 54. 20.100
  libavcodec     56. 26.100 / 56. 26.100
  libavformat    56. 25.101 / 56. 25.101
  libavdevice    56.  4.100 / 56.  4.100
  libavfilter     5. 11.102 /  5. 11.102
  libswscale      3.  1.101 /  3.  1.101
  libswresample   1.  1.100 /  1.  1.100
  libpostproc    53.  3.100 / 53.  3.100
Input #0, mov,mp4,m4a,3gp,3g2,mj2, from '/media/flaviopontes/Gigante/Filmes/Anime/Studio Ghibli/Hinata-Sou_Q-R_Gedo_Senki_movie.mp4':
  Metadata:
    major_brand     : isom
    minor_version   : 1
    compatible_brands: isomavc1
    creation_time   : 2007-10-17 07:44:27
  Duration: 01:55:28.43, start: 0.000000, bitrate: 368 kb/s
    Stream #0:0(und): Audio: mp3 (mp4a / 0x6134706D), 44100 Hz, stereo, s16p, 65 kb/s (default)
    Metadata:
      creation_time   : 2007-10-17 07:44:27
      handler_name    : GPAC ISO Audio Handler
    Stream #0:1(und): Video: h264 (Main) (avc1 / 0x31637661), yuv420p, 768x432 [SAR 1:1 DAR 16:9], 300 kb/s, 23.98 fps, 23.98 tbr, 24k tbn, 47.95 tbc (default)
    Metadata:
      creation_time   : 2007-10-17 07:44:45
      handler_name    : GPAC ISO Video Handler
